<svg width="240" height="240" viewBox="0 0 240 240" fill="none" xmlns="http://www.w3.org/2000/svg">
<rect width="240" height="240" fill="white"/>
<path d="M60 60C60 51.7157 66.7157 45 75 45H165C173.284 45 180 51.7157 180 60C180 68.2843 173.284 75 165 75H75C66.7157 75 60 68.2843 60 60Z" fill="black"/>
<path d="M120 90C120 81.7157 126.716 75 135 75C143.284 75 150 81.7157 150 90V165C150 181.569 136.569 195 120 195V90Z" fill="black"/>
<path d="M60 180C60 171.716 66.7157 165 75 165H90C106.569 165 120 178.431 120 195H75C66.7157 195 60 188.284 60 180Z" fill="black"/>
<path d="M60 150C60 141.716 66.7157 135 75 135C83.2843 135 90 141.716 90 150C90 158.284 83.2843 165 75 165C66.7157 165 60 158.284 60 150Z" fill="black"/>
</svg>
